# xmcd CD database file
#
# Track frame offsets:
#	150
#	16515
#	31302
#	46927
#	63726
#	90045
#
# Disc length: 2221 seconds
#
# Revision: 0
# Processed by: cddbd v1.5.2PL0 Copyright (c) Steve Scherf et al.
# Submitted via: CDex 1.51
#
DISCID=3708ab06
DTITLE=Twiztid - Psychomania EP
DYEAR=2017
DGENRE=Horrorcore
TTITLE0=1. Here Come The Killaz
TTITLE1=2. Heads On A Shelf
TTITLE2=3. My Underground
TTITLE3=4. Psychomania (OG Version -VIP)
TTITLE4=5. Psychomania (Entire MNE Family - Full Roster)
TTITLE5=6. FTC Krylonn Danger Mix
EXTD=YEAR: 2017
EXTT0=
EXTT1=
EXTT2=
EXTT3=
EXTT4=
EXTT5=
PLAYORDER=
